<mxfile host="Electron" modified="2023-06-28T14:42:22.729Z" agent="Mozilla/5.0 (Windows NT 10.0; Win64; x64) AppleWebKit/537.36 (KHTML, like Gecko) draw.io/21.4.0 Chrome/112.0.5615.204 Electron/24.5.1 Safari/537.36" etag="Dt51JgEXb_loW22GTvrP" version="21.4.0" type="device">
  <diagram name="Page-1" id="4I2zJMP6fPbmH2adfHKz">
    <mxGraphModel dx="479" dy="276" grid="1" gridSize="10" guides="1" tooltips="1" connect="1" arrows="1" fold="1" page="1" pageScale="1" pageWidth="827" pageHeight="1169" math="0" shadow="0">
      <root>
        <mxCell id="0" />
        <mxCell id="1" parent="0" />
        <mxCell id="tfoxWXDdU5jyKTtbno_l-5" style="edgeStyle=orthogonalEdgeStyle;rounded=0;orthogonalLoop=1;jettySize=auto;html=1;exitX=1;exitY=0.5;exitDx=0;exitDy=0;movable=0;resizable=0;rotatable=0;deletable=0;editable=0;locked=1;connectable=0;" parent="1" source="tfoxWXDdU5jyKTtbno_l-1" edge="1">
          <mxGeometry relative="1" as="geometry">
            <mxPoint x="480" y="120" as="targetPoint" />
          </mxGeometry>
        </mxCell>
        <mxCell id="tfoxWXDdU5jyKTtbno_l-1" value="" style="rounded=0;whiteSpace=wrap;html=1;movable=1;resizable=1;rotatable=1;deletable=1;editable=1;locked=0;connectable=1;" parent="1" vertex="1">
          <mxGeometry x="320" y="80" width="120" height="80" as="geometry" />
        </mxCell>
        <mxCell id="tfoxWXDdU5jyKTtbno_l-2" value="" style="endArrow=classic;html=1;rounded=0;entryX=0;entryY=0.75;entryDx=0;entryDy=0;" parent="1" target="tfoxWXDdU5jyKTtbno_l-1" edge="1">
          <mxGeometry width="50" height="50" relative="1" as="geometry">
            <mxPoint x="280" y="140" as="sourcePoint" />
            <mxPoint x="310" y="140" as="targetPoint" />
          </mxGeometry>
        </mxCell>
        <mxCell id="tfoxWXDdU5jyKTtbno_l-7" value="Merger" style="text;html=1;strokeColor=none;fillColor=none;align=center;verticalAlign=middle;whiteSpace=wrap;rounded=0;fontFamily=UGent Panno Text;fontSize=22;" parent="1" vertex="1">
          <mxGeometry x="350" y="80" width="60" height="30" as="geometry" />
        </mxCell>
        <mxCell id="GLrABeQMUucm_qGmX2vQ-3" value="&lt;font color=&quot;#e0a458&quot; face=&quot;tabler-icons&quot;&gt;&lt;/font&gt; input 1" style="text;html=1;strokeColor=none;fillColor=none;align=center;verticalAlign=middle;whiteSpace=wrap;rounded=0;fontFamily=UGent Panno Text;fontSize=16;" parent="1" vertex="1">
          <mxGeometry x="220" y="90" width="60" height="20" as="geometry" />
        </mxCell>
        <mxCell id="Z24bCqdnGDekF7S4QBh7-8" value="&lt;font color=&quot;#e0a458&quot; face=&quot;tabler-icons&quot;&gt;&lt;/font&gt;" style="text;html=1;strokeColor=none;fillColor=none;align=center;verticalAlign=middle;whiteSpace=wrap;rounded=0;fontFamily=UGent Panno Text;fontSize=16;" parent="1" vertex="1">
          <mxGeometry x="330" y="110" width="20" height="20" as="geometry" />
        </mxCell>
        <mxCell id="Z24bCqdnGDekF7S4QBh7-9" value="&lt;font color=&quot;#e0a458&quot; face=&quot;tabler-icons&quot;&gt;&lt;/font&gt;" style="text;html=1;strokeColor=none;fillColor=none;align=center;verticalAlign=middle;whiteSpace=wrap;rounded=0;fontFamily=UGent Panno Text;fontSize=16;" parent="1" vertex="1">
          <mxGeometry x="330" y="90" width="20" height="20" as="geometry" />
        </mxCell>
        <mxCell id="Z24bCqdnGDekF7S4QBh7-10" value="&lt;font color=&quot;#e0a458&quot; face=&quot;tabler-icons&quot;&gt;&lt;/font&gt;" style="text;html=1;strokeColor=none;fillColor=none;align=center;verticalAlign=middle;whiteSpace=wrap;rounded=0;fontFamily=UGent Panno Text;fontSize=16;" parent="1" vertex="1">
          <mxGeometry x="414" y="110" width="20" height="20" as="geometry" />
        </mxCell>
        <mxCell id="Z24bCqdnGDekF7S4QBh7-11" value="&lt;font color=&quot;#e0a458&quot; face=&quot;tabler-icons&quot;&gt;&lt;/font&gt;" style="text;html=1;strokeColor=none;fillColor=none;align=center;verticalAlign=middle;whiteSpace=wrap;rounded=0;fontFamily=UGent Panno Text;fontSize=16;" parent="1" vertex="1">
          <mxGeometry x="330" y="130" width="20" height="20" as="geometry" />
        </mxCell>
        <mxCell id="Z24bCqdnGDekF7S4QBh7-12" value="" style="shape=flexArrow;endArrow=classic;html=1;rounded=0;width=4.533333333333333;endSize=3.506666666666667;endWidth=12.062222222222223;strokeColor=#E0A458;" parent="1" edge="1">
          <mxGeometry width="50" height="50" relative="1" as="geometry">
            <mxPoint x="355" y="120" as="sourcePoint" />
            <mxPoint x="410" y="120" as="targetPoint" />
          </mxGeometry>
        </mxCell>
        <mxCell id="eTaeFyuaizBxlXW_G6Gp-1" value="" style="endArrow=classic;html=1;rounded=0;entryX=0;entryY=0.75;entryDx=0;entryDy=0;" edge="1" parent="1">
          <mxGeometry width="50" height="50" relative="1" as="geometry">
            <mxPoint x="280" y="99.88" as="sourcePoint" />
            <mxPoint x="320" y="99.88" as="targetPoint" />
          </mxGeometry>
        </mxCell>
        <mxCell id="eTaeFyuaizBxlXW_G6Gp-2" value="&lt;font color=&quot;#e0a458&quot; face=&quot;tabler-icons&quot;&gt;&lt;/font&gt; input n" style="text;html=1;strokeColor=none;fillColor=none;align=center;verticalAlign=middle;whiteSpace=wrap;rounded=0;fontFamily=UGent Panno Text;fontSize=16;" vertex="1" parent="1">
          <mxGeometry x="220" y="130" width="60" height="20" as="geometry" />
        </mxCell>
        <mxCell id="eTaeFyuaizBxlXW_G6Gp-3" value="&lt;font style=&quot;font-size: 22px;&quot; face=&quot;UGent Panno Text&quot;&gt;...&lt;/font&gt;" style="text;html=1;strokeColor=none;fillColor=none;align=center;verticalAlign=middle;whiteSpace=wrap;rounded=0;horizontal=0;" vertex="1" parent="1">
          <mxGeometry x="243.5" y="105" width="13" height="30" as="geometry" />
        </mxCell>
        <mxCell id="eTaeFyuaizBxlXW_G6Gp-4" value="&lt;font color=&quot;#e0a458&quot; face=&quot;tabler-icons&quot;&gt;&lt;/font&gt;&amp;nbsp;output" style="text;html=1;strokeColor=none;fillColor=none;align=center;verticalAlign=middle;whiteSpace=wrap;rounded=0;fontFamily=UGent Panno Text;fontSize=16;" vertex="1" parent="1">
          <mxGeometry x="480" y="110" width="60" height="20" as="geometry" />
        </mxCell>
        <mxCell id="eTaeFyuaizBxlXW_G6Gp-5" value="" style="ellipse;whiteSpace=wrap;html=1;fillColor=none;dashed=1;strokeColor=#b85450;" vertex="1" parent="1">
          <mxGeometry x="450" y="107.5" width="10" height="25" as="geometry" />
        </mxCell>
        <mxCell id="eTaeFyuaizBxlXW_G6Gp-7" value="" style="endArrow=classic;html=1;rounded=0;exitX=0.5;exitY=1;exitDx=0;exitDy=0;entryX=0.25;entryY=1;entryDx=0;entryDy=0;dashed=1;fillColor=#f8cecc;strokeColor=#b85450;" edge="1" parent="1" source="eTaeFyuaizBxlXW_G6Gp-5" target="tfoxWXDdU5jyKTtbno_l-1">
          <mxGeometry width="50" height="50" relative="1" as="geometry">
            <mxPoint x="430" y="230" as="sourcePoint" />
            <mxPoint x="350" y="180" as="targetPoint" />
            <Array as="points">
              <mxPoint x="455" y="190" />
              <mxPoint x="350" y="190" />
            </Array>
          </mxGeometry>
        </mxCell>
        <mxCell id="eTaeFyuaizBxlXW_G6Gp-9" value="Feedback" style="text;html=1;strokeColor=none;fillColor=none;align=center;verticalAlign=middle;whiteSpace=wrap;rounded=0;fontFamily=UGent Panno Text;fontSize=16;" vertex="1" parent="1">
          <mxGeometry x="380" y="170" width="60" height="20" as="geometry" />
        </mxCell>
      </root>
    </mxGraphModel>
  </diagram>
</mxfile>
